<?xml version="1.0" encoding="utf-8"?>
<!-- Generator: Adobe Illustrator 21.1.0, SVG Export Plug-In . SVG Version: 6.00 Build 0)  -->
<svg version="1.1" id="Calque_1" xmlns="http://www.w3.org/2000/svg" xmlns:xlink="http://www.w3.org/1999/xlink" x="0px" y="0px"
	 viewBox="0 0 706.4 214.9" style="enable-background:new 0 0 706.4 214.9;" xml:space="preserve">
<style type="text/css">
	.st0{fill:#EE6741;}
	.st1{fill:#A0A847;}
	.st2{fill:#E5C921;}
	.st3{fill:#9AC2B1;}
	.st4{fill:#F2D0CA;}
	.st5{enable-background:new    ;}
	.st6{fill:#FFFFFF;}
</style>
<title>Logotype</title>
<g id="Calque_1_1_">
	<path class="st0" d="M82.4,104.6c-0.5,3-0.8,6.1-1,9.1l-2.9-0.4c-1.1-11.4-3.5-19.9-7.2-25.5s-8-8.7-13-9.5h-0.1l-10.9,72.2
		c-0.5,3.5-0.6,6.2-0.1,7.9c0.5,1.7,1.8,3.1,3.4,3.8c2.9,1.1,5.9,1.8,8.9,2.2l-0.4,2.5c-11.8-2-21-3.5-27.6-4.5
		c-6-0.9-14.7-2.1-26.1-3.5l0.4-2.5c3,0.6,6.1,0.7,9.1,0.5c1.8-0.2,3.4-1.1,4.4-2.6c1-1.5,1.7-4,2.2-7.5l10.8-72.1h-0.1
		c-5.1-0.8-10.2,0.9-15.3,5.1S7.3,91.3,2.9,102L0,101.5c0.7-3,1.3-6,1.7-9c1.1-7.3,2.1-15.7,2.9-25.1c8,1.5,21.7,3.6,41.2,6.6
		c19.5,2.9,33.3,4.9,41.2,5.8C85.1,89,83.5,97.3,82.4,104.6z"/>
	<path class="st1" d="M133.5,184.6c-1.7,1.8-3.8,3.3-6.1,4.2c-2.5,0.9-5.2,1.4-7.9,1.4c-4.3,0.1-7.7-0.5-10.1-2
		c-2.4-1.5-4-4-4.7-7.7l-1.7-9.3c-0.5-3.4-1.5-6.8-2.9-9.9c-1.2-2.2-2.9-3.3-5.1-3.2l-4.2,0.1l0.7,21.6c0,1.7,0.2,3.5,0.7,5.2
		c0.3,1,1,1.7,1.9,2.1c1.4,0.4,2.9,0.6,4.4,0.6l0.1,1.9c-3.6-0.1-8.9,0-15.7,0.2c-7.6,0.2-13.2,0.5-16.8,0.8l-0.1-1.9
		c1.5-0.1,3-0.4,4.3-0.9c0.9-0.4,1.6-1.2,1.8-2.2c0.3-1.7,0.4-3.5,0.3-5.2l-1.5-46.7c0-1.7-0.2-3.5-0.7-5.2c-0.3-1-1-1.7-1.9-2.1
		c-1.4-0.4-2.9-0.6-4.4-0.6l-0.1-1.9c3.6,0.1,9,0,16.2-0.2l10.8-0.5c1.3-0.1,2.7-0.2,4.3-0.2c9.5-0.3,16.7,0.8,21.5,3.4
		c4.6,2.3,7.5,7,7.4,12.1c0.2,4.6-1.6,9-4.9,12.2c-3.4,3.4-9.2,5.7-17.5,6.7c6.4,0.2,11.3,1.3,14.6,3.1c3.3,1.8,5.6,4.9,6.3,8.5
		l2.3,9.7c0.3,1.7,0.9,3.3,1.8,4.8c0.6,0.8,1.6,1.3,2.7,1.2c1.1,0,2.1-0.5,2.9-1.3L133.5,184.6z M91.6,125.6
		c-0.8,0.6-1.3,1.4-1.4,2.4c-0.2,1.7-0.3,3.4-0.2,5.1l0.8,23.2l2.5-0.1c4.5-0.1,7.5-1.6,9-4.4c1.5-2.8,2.2-6.6,2.1-11.6
		c-0.2-5.1-1-9-2.5-11.6c-1.4-2.5-4.1-4-7-3.7C93.7,124.8,92.6,125,91.6,125.6L91.6,125.6z"/>
	<path class="st2" d="M198.5,113.2c6.2,3.1,11.4,8,14.9,14c3.5,6.1,5.3,13.4,5.3,21.9c0.2,7.7-1.7,15.3-5.4,22
		c-3.5,6.3-8.8,11.5-15.1,14.9c-6.8,3.6-14.4,5.4-22.1,5.3c-8.5,0-15.9-1.6-22.3-4.9c-6.2-3.1-11.4-8-14.9-14
		c-3.5-6.1-5.3-13.4-5.3-21.9c-0.2-7.7,1.7-15.3,5.4-22c3.5-6.3,8.8-11.5,15.1-14.9c6.8-3.6,14.4-5.4,22.1-5.3
		C184.7,108.4,192.2,110,198.5,113.2z M166,115.4c-2.8,3.3-5,8-6.5,14c-1.6,6.8-2.3,13.7-2.2,20.6c-0.1,7,0.8,13.9,2.6,20.6
		c1.7,5.9,4.1,10.5,7,13.8s6.2,4.8,9.7,4.9c3.7,0,6.9-1.7,9.8-5c2.8-3.3,5-8,6.5-14c1.6-6.8,2.3-13.7,2.2-20.6
		c0.1-7-0.8-13.9-2.6-20.6c-1.7-5.9-4.1-10.5-7-13.8c-2.9-3.2-6.2-4.9-9.7-4.9C172.1,110.4,168.8,112.1,166,115.4z"/>
	<path class="st3" d="M269.8,143.4c2.9,1.4,5.5,3.2,7.9,5.3c0.5,0.5,1.1,0.9,1.8,1c1.3,0.1,2.3-1.9,3-5.8l2.3,0.1
		c-0.6,4.7-1.2,13.1-2,25l-2.3-0.1c0-4.3-0.6-8.6-1.8-12.8c-1.2-3.3-3.3-6.1-6.1-8.1c-2.6-2.1-5.8-3.3-9.1-3.6
		c-6.9-0.4-12,2.6-15.2,9.1s-5.1,14.4-5.7,23.7s0.3,17.3,2.7,24.2c2.4,6.9,7.1,10.5,14,10.9c3.3,0.1,6.6-0.7,9.5-2.4
		c3.1-1.6,5.6-4.2,7.1-7.4c1.5-3.2,2.6-7.8,3.5-13.8l2.3,0.1c-0.8,12.5-1.2,21.1-1.2,26l-2.3-0.1c0-1.6-0.2-3.1-0.6-4.6
		c-0.3-0.9-0.8-1.4-1.5-1.5c-0.8,0-1.5,0.3-2.1,0.7c-2.8,1.8-5.8,3.2-8.9,4.3c-3.2,1-6.6,1.3-10,1c-6.9-0.3-13.6-2.2-19.5-5.5
		c-5.4-3.1-9.7-7.7-12.5-13.2c-2.8-5.6-4-12.2-3.5-19.8c0.3-6.8,2.4-13.4,6-19.2c3.5-5.4,8.4-9.7,14.3-12.3c6.2-2.8,13.1-4,19.9-3.5
		C263.2,141.2,266.6,142,269.8,143.4z"/>
	<path class="st0" d="M322.8,192.3c3.2-0.5,6.2-1.8,8.7-3.7c2.2-1.8,3.9-4.9,5-9.1c1.1-4.3,1.5-10.2,1.2-17.8l-2.9-74
		c0-2.5-0.3-5-1-7.4c-0.4-1.4-1.4-2.5-2.8-3c-2-0.6-4.1-0.9-6.3-0.8l-0.1-2.7c4.9,0.1,12.4-0.1,22.6-0.5c10.6-0.4,18.6-0.9,24.1-1.4
		l0.1,2.7c-2.1,0.1-4.2,0.6-6.2,1.3c-1.3,0.6-2.2,1.8-2.5,3.2c-0.5,2.5-0.6,5-0.4,7.5l1.9,49.5l0.4,11.2c0.2,5.2,0.2,9.8,0.1,13.8
		c-0.1,3.5-0.6,7-1.4,10.4c-1.9,6.7-6.2,12.2-13,16.5c-6.8,4.3-15.9,6.7-27.4,7.2L322.8,192.3z"/>
	<path class="st4" d="M424.4,131.8c5,3,9,7.4,11.5,12.7c2.7,5.5,4,12,3.9,19.6c0,6.8-1.5,13.4-4.5,19.5c-2.7,5.4-6.9,10-12.1,13.1
		c-5.3,3.1-11.3,4.7-17.5,4.5c-6.1,0.1-12.2-1.5-17.5-4.6c-5-3-9-7.4-11.5-12.7c-2.7-5.5-4-12-3.9-19.6c0-6.8,1.5-13.5,4.5-19.5
		c2.7-5.4,6.9-10,12.1-13.1c5.3-3.1,11.3-4.7,17.5-4.5C413,127.2,419.1,128.8,424.4,131.8z M398.8,133.4c-2.3,2.9-4,7.1-5.3,12.4
		c-1.3,6-2,12.2-2,18.4c-0.2,6.2,0.4,12.4,1.8,18.4c1.3,5.3,3.1,9.4,5.3,12.3s4.8,4.4,7.6,4.4c2.9,0,5.5-1.4,7.7-4.4
		c2.3-2.9,4-7.1,5.3-12.4c1.3-6,2-12.2,2-18.4c0.2-6.2-0.4-12.4-1.8-18.4c-1.3-5.3-3.1-9.4-5.3-12.3s-4.8-4.4-7.6-4.4
		C403.6,129,401,130.5,398.8,133.4L398.8,133.4z"/>
	<path class="st1" d="M507.7,115.6c-1.6,0.2-3.2,0.8-4.5,1.8c-1.1,1.1-1.9,2.5-2.1,4.1c-0.5,2.8-0.9,5.6-1,8.4l-1.4,22.7
		c-0.5,9-2.2,15.6-5,19.7c-1.9,2.8-4.7,4.9-7.9,6c-3.4,1.3-7.7,1.8-12.9,1.5c-7.6-0.5-13.4-2.3-17.4-5.6c-2.9-2.3-4.9-5.6-5.6-9.2
		c-0.9-5-1.1-10.1-0.6-15.1l1.8-29.5c0.2-1.7,0.1-3.5-0.2-5.2c-0.2-1-0.8-1.8-1.7-2.3c-1.4-0.5-2.8-0.9-4.3-1l0.1-1.9
		c3.6,0.4,9.1,0.8,16.5,1.3s13.1,0.7,16.8,0.7l-0.1,1.9c-1.7-0.1-3.4,0.1-5,0.5c-1,0.3-1.9,1-2.2,2c-0.6,1.7-0.8,3.4-0.9,5.1
		l-2.3,38.4c-0.4,6,0.3,10.3,2.1,12.8c1.7,2.5,4.6,3.9,8.7,4.2c6,0.4,10.3-1.5,13.1-5.6s4.4-10,4.8-17.8l1.4-21.8
		c0.3-3.3,0.3-6.7,0-10c-0.1-1.8-0.9-3.4-2.2-4.6c-1.2-1-3.3-1.8-6.3-2.5l0.1-1.9c2.6,0.3,6.1,0.6,10.5,0.9c3.3,0.2,5.9,0.3,7.8,0.2
		L507.7,115.6z"/>
	<path class="st2" d="M566.3,200.6c-4.3,0.1-11.5,0.5-21.5,1.2c-14.7,1-25.6,1.9-32.9,2.5l-0.1-1.9c1.5-0.1,2.9-0.5,4.3-1
		c0.9-0.5,1.5-1.3,1.7-2.3c0.3-1.7,0.3-3.5,0.1-5.2l-3.2-46.6c0-1.7-0.3-3.5-0.9-5.1c-0.3-0.9-1.1-1.7-2-2c-1.4-0.4-2.9-0.5-4.4-0.5
		l-0.1-1.9c7.3-0.3,18.2-1,32.9-2c9.2-0.6,15.8-1.2,19.6-1.6c0,5.9,0.1,11.2,0.4,15.8c0.1,2.3,0.4,4.5,0.7,6.8l-2.2,0.1
		c-1.6-7.2-4.1-12.3-7.4-15.2c-3-2.9-7.2-4.3-11.3-4l-1.2,0.1c-1.3,0-2.5,0.3-3.7,0.7c-0.7,0.3-1.3,0.9-1.5,1.7
		c-0.3,1.3-0.3,2.6-0.2,3.9l1.7,24.1l0.9-0.1c3.2-0.2,6.2-1.8,8.1-4.4c2.1-2.5,3.4-5.6,3.8-8.9l2.2-0.1c0,2.7,0.1,5.6,0.3,8.9
		l0.3,4.5c0.2,3.2,0.7,7.6,1.5,13.3l-2.2,0.1c-0.7-3.3-2.4-6.3-5-8.6c-2.4-2.2-5.7-3.2-8.9-2.9l-0.9,0.1l1.7,24.4
		c0,1.3,0.3,2.6,0.7,3.9c0.3,0.7,0.9,1.3,1.7,1.5c1.2,0.3,2.5,0.3,3.7,0.2l3.1-0.2c3.6-0.2,7-2.2,10-6c3-3.8,5-9.6,5.8-17.4l2.2-0.1
		c0,2.3,0.1,5.2,0.3,8.7C564.9,190.1,565.5,195.4,566.3,200.6z"/>
	<path class="st3" d="M630.5,137.1c0.1,2.3,0.3,4.5,0.6,6.8l-2.2,0.1c-2.5-8.1-5.4-13.9-8.8-17.4s-7-5.2-10.8-5h-0.1l2.5,53.8
		c0,2,0.3,3.9,1.1,5.7c0.6,1.2,1.7,2,3,2.3c2.2,0.4,4.5,0.5,6.8,0.3l0.1,1.9c-8.9,0.2-15.7,0.4-20.6,0.7c-4.5,0.2-10.9,0.6-19.4,1.2
		l-0.1-1.9c2.3,0,4.5-0.3,6.7-0.9c1.3-0.4,2.3-1.3,2.8-2.5c0.5-1.9,0.7-3.8,0.5-5.8l-2.5-53.8H590c-3.8,0.2-7.3,2.1-10.3,5.9
		c-3.1,3.8-5.4,9.8-7.1,18.2l-2.2,0.1c0.1-2.3,0.1-4.5,0-6.8c-0.3-5.5-0.8-11.7-1.5-18.6c6-0.1,16.3-0.5,30.8-1.1s24.7-1.2,30.7-1.7
		C630.2,125.5,630.2,131.7,630.5,137.1z"/>
	<path class="st0" d="M675.1,94.6c3.1,0.5,6.1,1.3,9,2.5c1,0.4,1.8,0.7,2.5,0.9c0.6,0.2,1.2,0.3,1.8,0.2c0.8-0.1,1.4-0.7,1.5-1.5
		c0.3-1.4,0.5-2.8,0.4-4.2l2.8-0.4c0.4,5.9,1.5,15.9,3.4,29.8l-2.8,0.4c-0.9-4.5-2.6-8.9-5-12.9c-2.1-3.8-5.1-7-8.7-9.4
		c-3.3-2.2-7.3-3.1-11.3-2.5c-3.3,0.3-6.4,1.8-8.6,4.2c-2,2.4-2.9,5.7-2.3,8.8c0.3,2.5,1.3,4.9,2.8,7c1.7,2.1,3.8,3.8,6.2,5.2
		c2.6,1.6,6.9,3.9,12.7,6.9c0.5,0.2,1,0.4,1.5,0.7c0.5,0.3,1,0.5,1.4,0.8c4.1,2,8,4.3,11.8,6.8c3,2,5.6,4.5,7.7,7.5
		c2.2,3.2,3.6,6.8,4,10.6c0.8,4.8-0.1,9.8-2.6,14c-2.7,4.2-6.4,7.6-10.9,9.7c-5.1,2.6-10.6,4.3-16.3,5c-4.1,0.6-8.4,0.8-12.5,0.5
		c-3.3-0.3-6.5-1-9.7-2c-1.3-0.8-2.8-1.1-4.4-1.1c-0.8,0.1-1.4,0.7-1.5,1.5c-0.3,1.4-0.5,2.8-0.4,4.2l-2.8,0.4
		c-0.4-5.6-1.9-17.4-4.3-35.4l2.8-0.4c1.9,9.6,5,17.2,9.3,22.7c4.3,5.5,10.1,7.8,17.3,6.7c4.5-0.6,7.9-2.1,10.2-4.6
		c2.4-2.5,3.4-6,2.8-9.3c-0.5-4.4-2.6-8.4-5.9-11.3c-3.3-2.9-8.3-6-15-9.2c-4.4-2.1-8.7-4.4-12.9-7c-3.2-2-6-4.5-8.3-7.5
		c-2.4-3.1-3.9-6.9-4.3-10.8c-0.8-4.6,0.1-9.4,2.5-13.5c2.4-3.9,5.9-7.1,10-9.2c4.6-2.4,9.6-3.9,14.7-4.5
		C667.5,94.3,671.3,94.2,675.1,94.6z"/>
	<polygon class="st4" points="151.7,65.4 142.9,62.4 135.5,67.9 135.6,58.7 128,53.3 136.8,50.6 139.6,41.7 145,49.2 154.2,49.1 
		148.7,56.6 	"/>
	<polygon class="st1" points="112.2,33.1 99.1,29.8 88.9,38.8 87.9,25.3 76.2,18.4 88.8,13.3 91.7,0 100.5,10.4 114,9.1 106.8,20.6 
			"/>
	<text transform="matrix(1 0 0 1 -14.01 -155.41)" class="st6" style="font-family:'PlayfairDisplaySC-Regular'; font-size:24px;">1</text>
</g>
</svg>
