<svg xmlns="http://www.w3.org/2000/svg" viewBox="0 0 96.08 97.02"><defs><style>.cls-1{fill:#9ac2b1;opacity:0.54;}.cls-2{fill:#a0a847;}.cls-3{fill:#53565f;}.cls-4{fill:#fff;}.cls-5{fill:#ee6741;}.cls-6{fill:#e5c921;}.cls-7{fill:#443e3a;}.cls-8{fill:none;stroke:#a0a847;stroke-miterlimit:10;}</style></defs><title>Fichier 4</title><g id="Calque_2" data-name="Calque 2"><g id="Calque_1-2" data-name="Calque 1"><circle class="cls-1" cx="49.15" cy="50.95" r="32.24"/><rect class="cls-2" x="50.04" y="37.17" width="18.93" height="18.09"/><polygon class="cls-3" points="70.65 37.17 48.36 37.17 50.04 34.22 68.55 34.22 70.65 37.17"/><rect class="cls-4" x="52.14" y="38.64" width="2.73" height="3.15"/><rect class="cls-4" x="52.14" y="43.06" width="2.73" height="4.42"/><rect class="cls-4" x="55.51" y="43.06" width="2.73" height="4.42"/><rect class="cls-4" x="64.34" y="43.06" width="2.73" height="4.42"/><rect class="cls-4" x="60.98" y="43.06" width="2.73" height="4.42"/><rect class="cls-4" x="52.14" y="48.52" width="2.73" height="4.42"/><rect class="cls-4" x="55.51" y="48.52" width="2.73" height="4.42"/><rect class="cls-4" x="55.51" y="38.64" width="2.73" height="3.15"/><rect class="cls-4" x="60.98" y="38.64" width="2.73" height="3.15"/><rect class="cls-4" x="64.34" y="38.64" width="2.73" height="3.15"/><rect class="cls-5" x="62.03" y="48.52" width="4.21" height="6.31"/><rect class="cls-3" x="51.3" y="31.28" width="1.26" height="4.21"/><rect class="cls-3" x="53.41" y="30.02" width="1.26" height="4.21"/><rect class="cls-6" x="38.41" y="25.75" width="11.26" height="20.9"/><polygon class="cls-3" points="50.87 26.15 37.21 26.15 38.41 17.71 50.07 17.71 50.87 26.15"/><rect class="cls-4" x="41.23" y="27.16" width="2.21" height="3.01"/><rect class="cls-4" x="41.23" y="31.58" width="2.21" height="3.01"/><rect class="cls-4" x="41.23" y="36" width="2.21" height="3.01"/><rect class="cls-4" x="44.44" y="27.16" width="2.21" height="3.01"/><rect class="cls-4" x="44.44" y="31.58" width="2.21" height="3.01"/><rect class="cls-4" x="44.44" y="36" width="2.21" height="3.01"/><rect class="cls-4" x="45.25" y="40.42" width="2.21" height="3.01"/><path class="cls-3" d="M42.33,40c-.94,0-1.71.4-1.71.9v5.73H44V40.93C44,40.43,43.27,40,42.33,40Z"/><rect class="cls-3" x="40.42" y="15.7" width="1.21" height="4.02"/><rect class="cls-5" x="29.55" y="46.6" width="8.58" height="6.99"/><polygon class="cls-7" points="38.84 46.93 28.42 46.93 29.34 40.5 38.22 40.5 38.84 46.93"/><rect class="cls-4" x="34.63" y="48.81" width="2.35" height="3.21"/><path class="cls-3" d="M31.92,48.53c-.72,0-1.3.31-1.3.69v4.36h2.6V49.22C33.22,48.84,32.64,48.53,31.92,48.53Z"/><rect class="cls-7" x="36.39" y="38.05" width="0.92" height="3.06"/><path class="cls-8" d="M5.22,62.73A46,46,0,0,1,46.87,4.6"/><path class="cls-2" d="M7.2,68.43A30.22,30.22,0,0,1,9,58.82l-4,3.13L0,61.81A30.19,30.19,0,0,1,7.2,68.43Z"/><path class="cls-8" d="M78.69,86.15A46,46,0,0,1,7.2,68.43"/><path class="cls-2" d="M83.1,82a30.22,30.22,0,0,1-9.53,2.22L78,86.62,80,91.29A30.19,30.19,0,0,1,83.1,82Z"/><path class="cls-8" d="M52.9,4.64A46,46,0,0,1,83.1,82"/><path class="cls-2" d="M46.87,4.6a30.22,30.22,0,0,1,8.46,4.91L53.69,4.72,55.5,0A30.2,30.2,0,0,1,46.87,4.6Z"/></g></g></svg>