<svg xmlns="http://www.w3.org/2000/svg" viewBox="0 0 104.47 111.81"><defs><style>.cls-1,.cls-13,.cls-3,.cls-7{fill:none;}.cls-1{stroke:#ee6741;}.cls-1,.cls-13,.cls-6,.cls-7{stroke-miterlimit:10;}.cls-2{fill:#ee6741;}.cls-4{fill:#f2d0ca;}.cls-5,.cls-6{fill:#fff;}.cls-13,.cls-6{stroke:#fff;}.cls-7{stroke:#a0a847;}.cls-8{fill:#53565f;}.cls-9{fill:#855e48;}.cls-10{fill:#9ac2b1;}.cls-11{fill:#443e3a;}.cls-12{fill:#a0a847;}</style></defs><title>Fichier 7</title><g id="Calque_2" data-name="Calque 2"><g id="Calque_1-2" data-name="Calque 1"><path class="cls-1" d="M14.82,61.1A42.71,42.71,0,0,1,34,28"/><path class="cls-2" d="M14.89,67.13a30.23,30.23,0,0,1,4.78-8.53l-4.76,1.71-4.75-1.73A30.19,30.19,0,0,1,14.89,67.13Z"/><path class="cls-2" d="M39.24,25.06a30.22,30.22,0,0,0-5,8.4l-.89-5-3.87-3.25A30.2,30.2,0,0,0,39.24,25.06Z"/><path class="cls-3" d="M14.89,67.13"/><path class="cls-1" d="M72.29,103.56a42.71,42.71,0,0,1-37.92-4"/><path class="cls-2" d="M77.77,101.05a30.23,30.23,0,0,1-9.74-.92l3.49,3.66.34,5A30.19,30.19,0,0,1,77.77,101.05Z"/><path class="cls-2" d="M29.52,95.9a30.22,30.22,0,0,0,9.71,1.17L35,99.91l-1.4,4.86A30.2,30.2,0,0,0,29.52,95.9Z"/><path class="cls-3" d="M77.77,101.05"/><path class="cls-1" d="M74,24.37a42.64,42.64,0,0,1,25.37,46.7"/><path class="cls-2" d="M68.26,22.42a30.22,30.22,0,0,1,6.49,7.32l0-5.06,3.2-3.92A30.2,30.2,0,0,1,68.26,22.42Z"/><path class="cls-2" d="M97.87,76.93a30.22,30.22,0,0,0-2.65-9.41l4.23,2.77,5-.58A30.19,30.19,0,0,0,97.87,76.93Z"/><rect class="cls-4" x="39.58" y="10.68" width="28.26" height="27.01"/><polygon class="cls-5" points="52.13 34.26 50.16 34.26 48.41 34.26 48.41 28.24 52.13 28.24 52.13 34.26"/><path class="cls-6" d="M50.59,34.26"/><path class="cls-6" d="M50.07,28.24"/><rect class="cls-7" x="48.36" y="28.18" width="3.72" height="6.03"/><line class="cls-7" x1="50.18" y1="28.29" x2="50.18" y2="34.1"/><line class="cls-7" x1="48.45" y1="30.12" x2="52.04" y2="30.12"/><polygon class="cls-5" points="47 34.26 45.03 34.26 43.27 34.26 43.27 28.24 47 28.24 47 34.26"/><path class="cls-6" d="M45.46,34.26"/><path class="cls-6" d="M44.94,28.24"/><rect class="cls-7" x="43.23" y="28.18" width="3.72" height="6.03"/><line class="cls-7" x1="45.05" y1="28.29" x2="45.05" y2="34.1"/><line class="cls-7" x1="43.32" y1="30.12" x2="46.91" y2="30.12"/><polygon class="cls-5" points="52.13 26.57 50.16 26.57 48.41 26.57 48.41 20.54 52.13 20.54 52.13 26.57"/><path class="cls-6" d="M50.59,26.57"/><path class="cls-6" d="M50.07,20.54"/><rect class="cls-7" x="48.36" y="20.49" width="3.72" height="6.03"/><line class="cls-7" x1="50.18" y1="20.6" x2="50.18" y2="26.41"/><line class="cls-7" x1="48.45" y1="22.43" x2="52.04" y2="22.43"/><polygon class="cls-5" points="47 26.57 45.03 26.57 43.27 26.57 43.27 20.54 47 20.54 47 26.57"/><path class="cls-6" d="M45.46,26.57"/><path class="cls-6" d="M44.94,20.54"/><rect class="cls-7" x="43.23" y="20.49" width="3.72" height="6.03"/><line class="cls-7" x1="45.05" y1="20.6" x2="45.05" y2="26.41"/><line class="cls-7" x1="43.32" y1="22.43" x2="46.91" y2="22.43"/><polygon class="cls-5" points="52.13 18.87 50.16 18.87 48.41 18.87 48.41 12.85 52.13 12.85 52.13 18.87"/><path class="cls-6" d="M50.59,18.87"/><path class="cls-6" d="M50.07,12.85"/><rect class="cls-7" x="48.36" y="12.79" width="3.72" height="6.03"/><line class="cls-7" x1="50.18" y1="12.9" x2="50.18" y2="18.71"/><line class="cls-7" x1="48.45" y1="14.73" x2="52.04" y2="14.73"/><polygon class="cls-5" points="47 18.87 45.03 18.87 43.27 18.87 43.27 12.85 47 12.85 47 18.87"/><path class="cls-6" d="M45.46,18.87"/><path class="cls-6" d="M44.94,12.85"/><rect class="cls-7" x="43.23" y="12.79" width="3.72" height="6.03"/><line class="cls-7" x1="45.05" y1="12.9" x2="45.05" y2="18.71"/><line class="cls-7" x1="43.32" y1="14.73" x2="46.91" y2="14.73"/><polygon class="cls-5" points="64.95 26.57 62.99 26.57 61.23 26.57 61.23 20.54 64.95 20.54 64.95 26.57"/><path class="cls-6" d="M63.41,26.57"/><path class="cls-6" d="M62.9,20.54"/><rect class="cls-7" x="61.19" y="20.49" width="3.72" height="6.03"/><line class="cls-7" x1="63" y1="20.6" x2="63" y2="26.41"/><line class="cls-7" x1="61.28" y1="22.43" x2="64.86" y2="22.43"/><polygon class="cls-5" points="59.82 26.57 57.86 26.57 56.1 26.57 56.1 20.54 59.82 20.54 59.82 26.57"/><path class="cls-6" d="M58.28,26.57"/><path class="cls-6" d="M57.77,20.54"/><rect class="cls-7" x="56.06" y="20.49" width="3.72" height="6.03"/><line class="cls-7" x1="57.87" y1="20.6" x2="57.87" y2="26.41"/><line class="cls-7" x1="56.15" y1="22.43" x2="59.73" y2="22.43"/><polygon class="cls-5" points="64.95 18.87 62.99 18.87 61.23 18.87 61.23 12.85 64.95 12.85 64.95 18.87"/><path class="cls-6" d="M63.41,18.87"/><path class="cls-6" d="M62.9,12.85"/><rect class="cls-7" x="61.19" y="12.79" width="3.72" height="6.03"/><line class="cls-7" x1="63" y1="12.9" x2="63" y2="18.71"/><line class="cls-7" x1="61.28" y1="14.73" x2="64.86" y2="14.73"/><polygon class="cls-5" points="59.82 18.87 57.86 18.87 56.1 18.87 56.1 12.85 59.82 12.85 59.82 18.87"/><path class="cls-6" d="M58.28,18.87"/><path class="cls-6" d="M57.77,12.85"/><rect class="cls-7" x="56.06" y="12.79" width="3.72" height="6.03"/><line class="cls-7" x1="57.87" y1="12.9" x2="57.87" y2="18.71"/><line class="cls-7" x1="56.15" y1="14.73" x2="59.73" y2="14.73"/><polygon class="cls-8" points="70.35 10.68 37.06 10.68 39.58 6.28 67.21 6.28 70.35 10.68"/><rect class="cls-9" x="57.48" y="28.06" width="6.28" height="9.42"/><rect class="cls-8" x="41.46" y="1.88" width="1.88" height="6.28"/><rect class="cls-8" x="44.6" width="1.88" height="6.28"/><polyline class="cls-10" points="29.06 95.36 29.06 96.98 2.37 96.98 2.37 71.48 29.06 71.48 29.06 95.36"/><polygon class="cls-8" points="31.43 71.48 0 71.48 2.37 67.33 28.47 67.33 31.43 71.48"/><rect class="cls-5" x="5.34" y="73.56" width="3.86" height="4.45"/><rect class="cls-5" x="5.34" y="79.78" width="3.86" height="6.23"/><rect class="cls-5" x="10.08" y="79.78" width="3.86" height="6.23"/><rect class="cls-5" x="22.54" y="79.78" width="3.86" height="6.23"/><rect class="cls-5" x="17.79" y="79.78" width="3.86" height="6.23"/><rect class="cls-5" x="5.34" y="87.5" width="3.86" height="6.23"/><rect class="cls-5" x="10.08" y="87.5" width="3.86" height="6.23"/><rect class="cls-5" x="10.08" y="73.56" width="3.86" height="4.45"/><rect class="cls-5" x="17.79" y="73.56" width="3.86" height="4.45"/><rect class="cls-5" x="22.54" y="73.56" width="3.86" height="4.45"/><rect class="cls-2" x="19.28" y="87.5" width="5.93" height="8.9"/><rect class="cls-8" x="4.15" y="63.18" width="1.78" height="5.93"/><rect class="cls-8" x="7.12" y="61.4" width="1.78" height="5.93"/><polyline class="cls-11" points="97.14 77.42 99.64 83.75 76.25 83.75 78.05 76.15 96.64 76.15 97.14 77.42"/><rect class="cls-12" x="76.84" y="83.75" width="22.21" height="28.06"/><polygon class="cls-4" points="94.08 91.07 92.1 91.07 90.33 91.07 90.33 85.56 94.08 85.56 94.08 91.07"/><path class="cls-6" d="M92.1,91.07"/><path class="cls-6" d="M92,85.55"/><rect class="cls-13" x="90.29" y="85.51" width="3.75" height="5.51"/><line class="cls-13" x1="92.11" y1="85.6" x2="92.11" y2="90.92"/><line class="cls-13" x1="90.38" y1="87.28" x2="93.99" y2="87.28"/><polygon class="cls-4" points="94.08 97.64 92.1 97.64 90.33 97.64 90.33 92.13 94.08 92.13 94.08 97.64"/><path class="cls-6" d="M92.1,97.64"/><path class="cls-6" d="M92,92.13"/><rect class="cls-13" x="90.29" y="92.08" width="3.75" height="5.51"/><line class="cls-13" x1="92.11" y1="92.18" x2="92.11" y2="97.49"/><line class="cls-13" x1="90.38" y1="93.85" x2="93.99" y2="93.85"/><polygon class="cls-4" points="85.31 91.07 83.33 91.07 81.56 91.07 81.56 85.56 85.31 85.56 85.31 91.07"/><path class="cls-6" d="M83.33,91.07"/><path class="cls-6" d="M83.24,85.55"/><rect class="cls-13" x="81.52" y="85.51" width="3.75" height="5.51"/><line class="cls-13" x1="83.35" y1="85.6" x2="83.35" y2="90.92"/><line class="cls-13" x1="81.61" y1="87.28" x2="85.22" y2="87.28"/><polygon class="cls-4" points="85.31 97.64 83.33 97.64 81.56 97.64 81.56 92.13 85.31 92.13 85.31 97.64"/><path class="cls-6" d="M83.33,97.64"/><path class="cls-6" d="M83.24,92.13"/><rect class="cls-13" x="81.52" y="92.08" width="3.75" height="5.51"/><line class="cls-13" x1="83.35" y1="92.18" x2="83.35" y2="97.49"/><line class="cls-13" x1="81.61" y1="93.85" x2="85.22" y2="93.85"/><polygon class="cls-4" points="85.31 107.13 83.33 107.13 81.56 107.13 81.56 100.46 85.31 100.46 85.31 107.13"/><path class="cls-6" d="M83.33,107.13"/><path class="cls-6" d="M83.24,100.46"/><rect class="cls-13" x="81.52" y="100.4" width="3.75" height="6.67"/><line class="cls-13" x1="83.35" y1="100.52" x2="83.35" y2="106.95"/><line class="cls-13" x1="81.61" y1="102.55" x2="85.22" y2="102.55"/><path class="cls-4" d="M92.27,100.12c-1.58,0-2.86.68-2.86,1.51v9.59h5.72v-9.59C95.13,100.8,93.85,100.12,92.27,100.12Z"/><path class="cls-5" d="M92.33,101c-1.13,0-2,.3-2,.68V106h4.09v-4.29C94.37,101.3,93.46,101,92.33,101Z"/><rect class="cls-11" x="92.63" y="71.23" width="2.49" height="5.84"/></g></g></svg>