<svg xmlns="http://www.w3.org/2000/svg" viewBox="0 0 143.83 231.7"><defs><style>.cls-1{fill:#ee6741;}.cls-2{fill:#f2d0ca;}.cls-3{fill:#e5c921;}.cls-4{fill:#53565f;}.cls-5{fill:#fff;}.cls-6,.cls-7{fill:none;stroke:#9ac2b1;stroke-miterlimit:10;}.cls-7{stroke-dasharray:10.34 10.34;}.cls-8{fill:#9ac2b1;}</style></defs><title>Fichier 9</title><g id="Calque_2" data-name="Calque 2"><g id="Calque_1-2" data-name="Calque 1"><polygon class="cls-1" points="143.83 79.63 135.89 78.67 130.59 84.67 129.05 76.81 121.71 73.63 128.7 69.74 129.46 61.77 135.32 67.22 143.14 65.48 139.76 72.74 143.83 79.63"/><polygon class="cls-2" points="140.88 30.93 127.01 29.98 119.06 41.38 114.88 27.3 101.61 22.27 112.9 14.52 112.65 0 123.81 9.29 136.92 5.36 132.53 18.85 140.88 30.93"/><rect class="cls-3" x="4.4" y="155.39" width="41.09" height="76.31"/><polygon class="cls-4" points="49.9 156.86 0 156.86 4.4 126.04 46.96 126.04 49.9 156.86"/><rect class="cls-5" x="14.68" y="160.52" width="8.07" height="11.01"/><rect class="cls-5" x="14.68" y="176.67" width="8.07" height="11.01"/><rect class="cls-5" x="14.68" y="192.81" width="8.07" height="11.01"/><rect class="cls-5" x="26.42" y="160.52" width="8.07" height="11.01"/><rect class="cls-5" x="26.42" y="176.67" width="8.07" height="11.01"/><rect class="cls-5" x="26.42" y="192.81" width="8.07" height="11.01"/><rect class="cls-5" x="29.35" y="208.95" width="8.07" height="11.01"/><path class="cls-4" d="M18.71,207.49c-3.44,0-6.24,1.48-6.24,3.3V231.7H24.95V210.79C24.95,209,22.16,207.49,18.71,207.49Z"/><rect class="cls-4" x="11.74" y="118.7" width="4.4" height="14.68"/><line class="cls-6" x1="49.3" y1="120.72" x2="52.13" y2="116.59"/><line class="cls-7" x1="57.96" y1="108.06" x2="101.75" y2="44.07"/><line class="cls-6" x1="104.66" y1="39.81" x2="107.49" y2="35.68"/><path class="cls-8" d="M45.9,125.7a30.22,30.22,0,0,1,8.75-4.37l-4.9-1.27-3-4.1A30.2,30.2,0,0,1,45.9,125.7Z"/><path class="cls-8" d="M110.9,30.7a30.22,30.22,0,0,0-.9,9.74l-3-4.11-4.9-1.27A30.19,30.19,0,0,0,110.9,30.7Z"/></g></g></svg>